<?xml version="1.0" encoding="UTF-8"?>
<svg xmlns="http://www.w3.org/2000/svg" xmlns:xlink="http://www.w3.org/1999/xlink" width="49px" height="49px" viewBox="0 0 49 48" version="1.1">
<g id="surface1">
<path style=" stroke:none;fill-rule:nonzero;fill:rgb(30.196078%,38.039216%,98.823529%);fill-opacity:1;" d="M 18.011719 35.03125 C 13.90625 32.726562 11.371094 28.449219 11.363281 23.816406 C 11.378906 17.417969 16.140625 11.980469 22.589844 10.992188 L 21.425781 12.132812 C 20.820312 12.746094 20.820312 13.71875 21.425781 14.335938 C 21.722656 14.625 22.125 14.792969 22.546875 14.800781 C 22.96875 14.792969 23.371094 14.625 23.667969 14.335938 L 27.730469 10.355469 C 28.332031 9.742188 28.332031 8.769531 27.730469 8.15625 L 23.667969 4.175781 C 23.042969 3.585938 22.050781 3.585938 21.425781 4.175781 C 20.820312 4.792969 20.820312 5.765625 21.425781 6.378906 L 22.847656 7.773438 C 14.488281 8.65625 8.152344 15.578125 8.167969 23.816406 C 8.171875 29.578125 11.316406 34.902344 16.414062 37.78125 C 16.652344 37.910156 16.921875 37.984375 17.191406 37.992188 C 17.769531 37.988281 18.296875 37.679688 18.574219 37.1875 C 18.800781 36.832031 18.871094 36.398438 18.765625 35.988281 C 18.660156 35.582031 18.386719 35.234375 18.011719 35.027344 Z M 18.011719 35.03125 "/>
<path style=" stroke:none;fill-rule:nonzero;fill:rgb(30.196078%,38.039216%,98.823529%);fill-opacity:1;" d="M 41.074219 23.816406 C 41.042969 18.066406 37.925781 12.761719 32.867188 9.847656 C 32.09375 9.425781 31.113281 9.6875 30.667969 10.441406 C 30.234375 11.203125 30.503906 12.164062 31.269531 12.601562 C 35.359375 14.914062 37.878906 19.1875 37.878906 23.816406 C 37.863281 30.210938 33.101562 35.648438 26.652344 36.636719 L 27.816406 35.496094 C 28.421875 34.882812 28.421875 33.910156 27.816406 33.296875 C 27.191406 32.703125 26.199219 32.703125 25.570312 33.296875 L 21.511719 37.273438 C 20.90625 37.886719 20.90625 38.859375 21.511719 39.472656 L 25.570312 43.453125 C 25.871094 43.742188 26.273438 43.910156 26.695312 43.917969 C 27.113281 43.910156 27.515625 43.742188 27.816406 43.453125 C 28.421875 42.839844 28.421875 41.867188 27.816406 41.25 L 26.347656 39.8125 C 34.703125 38.9375 41.050781 32.042969 41.074219 23.8125 Z M 41.074219 23.816406 "/>
<path style=" stroke:none;fill-rule:nonzero;fill:rgb(30.196078%,38.039216%,98.823529%);fill-opacity:1;" d="M 20.171875 22.542969 C 19.542969 21.953125 18.550781 21.953125 17.925781 22.542969 C 17.320312 23.160156 17.320312 24.132812 17.925781 24.746094 L 21.765625 28.511719 C 22.066406 28.800781 22.46875 28.96875 22.890625 28.976562 C 23.3125 28.96875 23.714844 28.800781 24.011719 28.511719 L 31.355469 21.316406 C 31.957031 20.703125 31.957031 19.730469 31.355469 19.117188 C 30.726562 18.523438 29.734375 18.523438 29.109375 19.117188 L 22.847656 25.210938 L 20.167969 22.542969 Z M 20.171875 22.542969 "/>
</g>
</svg>
